<svg xmlns="http://www.w3.org/2000/svg" data-name="Layer 1" viewBox="0 0 110 137.5" x="0px" y="0px"><path d="M69.234,43.856H40.766a1,1,0,0,1-.979-.794L37.305,31.245a2.4,2.4,0,0,1,.492-2.007,2.367,2.367,0,0,1,1.836-.869H70.367a2.367,2.367,0,0,1,1.836.869,2.393,2.393,0,0,1,.494,2l0,.01L70.213,43.062A1,1,0,0,1,69.234,43.856Zm-27.657-2H68.423L70.737,30.84a.4.4,0,0,0-.081-.334.369.369,0,0,0-.289-.137H39.633a.369.369,0,0,0-.289.137.4.4,0,0,0-.08.337Zm30.14-10.817h0Z"/><path d="M73.658,49.724H36.321a2.011,2.011,0,0,1-2.008-2.008v-3.85a2.011,2.011,0,0,1,2.008-2.008H73.658a2.011,2.011,0,0,1,2.008,2.008v3.85A2.011,2.011,0,0,1,73.658,49.724ZM36.321,43.858l-.008,3.858,37.345.008.008-3.858v0Z"/><path d="M67.885,55.832H42.114a2.82,2.82,0,0,1-2.541-1.575l-2.532-5.088a1,1,0,0,1,.9-1.445H72.063a1,1,0,0,1,.895,1.445l-2.531,5.088A2.822,2.822,0,0,1,67.885,55.832ZM39.551,49.724l1.813,3.642a.833.833,0,0,0,.75.466H67.885a.834.834,0,0,0,.751-.466l1.812-3.642Z"/><path d="M81.574,103H28.426a1.8,1.8,0,0,1-1.55-2.7l2.608-6.635a.994.994,0,0,1,.1-.188,1.78,1.78,0,0,1,1.485-.794H78.932a1.78,1.78,0,0,1,1.485.794.994.994,0,0,1,.1.188l2.608,6.635a1.8,1.8,0,0,1-1.55,2.7Zm-.168-1.678h0ZM28.75,101h52.5l-2.483-6.318H31.233Z"/><path d="M72.094,94.682H37.876a1,1,0,0,1-.97-1.243c3.761-15.068,5.6-26.627,6.156-38.652a1,1,0,0,1,1-.954H65.939a1,1,0,0,1,1,.955,169.025,169.025,0,0,0,6.121,38.629,1,1,0,0,1-.965,1.265Zm-32.94-2H70.788a170.112,170.112,0,0,1-5.8-36.849H45.013C44.417,67.323,42.645,78.473,39.154,92.682Z"/><path d="M59,30.369H52.249a1,1,0,0,1-1-1V22.5H47.705a1.888,1.888,0,0,1-1.886-1.886V15.622a1.881,1.881,0,0,1,1.886-1.871h3.544V8.871A1.873,1.873,0,0,1,53.12,7h5.008A1.874,1.874,0,0,1,60,8.871v4.88h3.515a1.873,1.873,0,0,1,1.87,1.871v4.993a1.88,1.88,0,0,1-1.87,1.886H60v6.868A1,1,0,0,1,59,30.369Zm-5.751-2H58v-6A1.873,1.873,0,0,1,59.871,20.5h3.514v-4.75H59.871A1.873,1.873,0,0,1,58,13.88V9H53.249v4.88a1.873,1.873,0,0,1-1.871,1.871H47.819V20.5h3.559a1.873,1.873,0,0,1,1.871,1.871Z"/><text x="0" y="125" fill="#000000" font-size="5px" font-weight="bold" font-family="'Helvetica Neue', Helvetica, Arial-Unicode, Arial, Sans-serif">Created by Soremba</text><text x="0" y="130" fill="#000000" font-size="5px" font-weight="bold" font-family="'Helvetica Neue', Helvetica, Arial-Unicode, Arial, Sans-serif">from the Noun Project</text></svg>