<svg xmlns:dc="http://purl.org/dc/elements/1.1/" xmlns:cc="http://creativecommons.org/ns#" xmlns:rdf="http://www.w3.org/1999/02/22-rdf-syntax-ns#" xmlns:svg="http://www.w3.org/2000/svg" xmlns="http://www.w3.org/2000/svg" xmlns:sodipodi="http://sodipodi.sourceforge.net/DTD/sodipodi-0.dtd" xmlns:inkscape="http://www.inkscape.org/namespaces/inkscape" viewBox="0 0 26.458333 33.0729175" version="1.1" x="0px" y="0px"><g transform="translate(131.02975,-196.70833)"><path style="color:#000000;font-style:normal;font-variant:normal;font-weight:normal;font-stretch:normal;font-size:medium;line-height:normal;font-family:sans-serif;font-variant-ligatures:normal;font-variant-position:normal;font-variant-caps:normal;font-variant-numeric:normal;font-variant-alternates:normal;font-feature-settings:normal;text-indent:0;text-align:start;text-decoration:none;text-decoration-line:none;text-decoration-style:solid;text-decoration-color:#000000;letter-spacing:normal;word-spacing:normal;text-transform:none;writing-mode:lr-tb;direction:ltr;text-orientation:mixed;dominant-baseline:auto;baseline-shift:baseline;text-anchor:start;white-space:normal;shape-padding:0;clip-rule:nonzero;display:inline;overflow:visible;visibility:visible;opacity:1;isolation:auto;mix-blend-mode:normal;color-interpolation:sRGB;color-interpolation-filters:linearRGB;solid-color:#000000;solid-opacity:1;vector-effect:none;fill:#000000;fill-opacity:1;fill-rule:nonzero;stroke:none;stroke-width:0.54021871;stroke-linecap:round;stroke-linejoin:round;stroke-miterlimit:4;stroke-dasharray:none;stroke-dashoffset:86.95724487;stroke-opacity:1;color-rendering:auto;image-rendering:auto;shape-rendering:auto;text-rendering:auto;enable-background:accumulate" d="m -113.48622,198.6964 a 0.27013636,0.27013636 0 0 0 -0.26604,0.27407 v 0.76041 a 0.27013636,0.27013636 0 1 0 0.53998,0 v -0.76041 a 0.27013636,0.27013636 0 0 0 -0.27394,-0.27407 z m -3.08586,0.81548 a 0.27013636,0.27013636 0 0 0 -0.22173,0.40849 l 0.38053,0.65876 a 0.27013636,0.27013636 0 1 0 0.46782,-0.26993 l -0.38014,-0.65888 a 0.27013636,0.27013636 0 0 0 -0.24648,-0.13844 z m 6.13608,0 a 0.27013636,0.27013636 0 0 0 -0.23806,0.13844 l -0.3804,0.65888 a 0.27013636,0.27013636 0 1 0 0.46784,0.26993 l 0.38028,-0.65876 a 0.27013636,0.27013636 0 0 0 -0.22966,-0.40849 z m -3.04621,0.91492 c -0.59592,0 -1.16479,0.12038 -1.6821,0.33936 -0.51719,0.21875 -0.98293,0.53544 -1.37384,0.92633 -0.39089,0.39089 -0.70718,0.85615 -0.92595,1.37331 -0.21876,0.51732 -0.33974,1.08671 -0.33974,1.68251 0,0.59592 0.12037,1.16491 0.33974,1.6821 0.21877,0.51729 0.53506,0.98292 0.92595,1.37383 0.097,0.0971 0.19999,0.19075 0.30671,0.27886 0.1063,0.088 0.2176,0.171 0.33262,0.24881 0.11008,0.0737 0.22303,0.14265 0.33933,0.20651 a 0.27013638,0.27013638 0 0 0 0.0271,0.0147 c 0.07,0.0351 0.13655,0.0855 0.19369,0.15189 0.092,0.1063 0.15861,0.25205 0.18193,0.41902 -0.28508,0.12562 -0.4865,0.41213 -0.4865,0.74138 0,0.33494 0.20819,0.62533 0.50099,0.74798 l 0.0126,0.4313 c 0.0246,0.89888 0.73917,1.64013 1.64737,1.64013 0.90823,0 1.62123,-0.74163 1.64778,-1.63973 l 0.0126,-0.43158 c 0.29297,-0.1231 0.50136,-0.41303 0.50136,-0.7481 0,-0.32925 -0.20146,-0.61523 -0.48647,-0.74138 0.0233,-0.16701 0.0907,-0.31255 0.18214,-0.41902 0.0569,-0.066 0.1231,-0.11785 0.19327,-0.15189 a 0.27015914,0.27015914 0 0 0 0.0126,0 c 0,0 0,0 0,0 a 0.27013638,0.27013638 0 0 0 0.0147,-0.0126 c 0.11659,-0.0634 0.22913,-0.13235 0.33818,-0.20587 0.11533,-0.0777 0.22589,-0.16071 0.33261,-0.24882 0.1063,-0.088 0.20882,-0.18087 0.30659,-0.27873 0.39089,-0.39091 0.70755,-0.85667 0.92645,-1.37384 0.21876,-0.51731 0.33936,-1.08617 0.33936,-1.6821 0,-0.59592 -0.12037,-1.16517 -0.33988,-1.68248 -0.21875,-0.51731 -0.53504,-0.98242 -0.92593,-1.37333 -0.39091,-0.39089 -0.85615,-0.70756 -1.37346,-0.92646 -0.51719,-0.21877 -1.08643,-0.33921 -1.68236,-0.33921 z m 0,0.53998 c 0.52288,0 1.01958,0.1063 1.47188,0.29699 0.45217,0.19138 0.8595,0.46849 1.20182,0.81081 0.34234,0.34234 0.61952,0.74968 0.81081,1.20185 0.19138,0.45227 0.29714,0.949 0.29714,1.47188 0,0.523 -0.1063,1.01985 -0.29714,1.472 -0.19138,0.45229 -0.46847,0.85963 -0.81081,1.20197 -0.0855,0.0855 -0.17478,0.16701 -0.26822,0.24401 -0.0933,0.0777 -0.19096,0.14978 -0.29157,0.21772 -0.10104,0.0687 -0.2044,0.1313 -0.3115,0.18928 -0.13571,0.0687 -0.25528,0.16407 -0.35435,0.279 -0.16428,0.19075 -0.27329,0.43442 -0.30917,0.70277 h -2.27582 c -0.0363,-0.26835 -0.14517,-0.512 -0.30945,-0.70277 -0.0985,-0.11407 -0.21629,-0.2086 -0.35034,-0.27679 -0.10756,-0.0582 -0.21125,-0.12185 -0.3119,-0.18928 -0.10105,-0.0687 -0.19768,-0.14075 -0.29102,-0.21773 -0.0933,-0.0777 -0.18319,-0.1586 -0.26877,-0.24415 -0.34232,-0.34219 -0.6195,-0.74953 -0.81081,-1.20182 -0.19138,-0.45217 -0.29711,-0.949 -0.29711,-1.47201 0,-0.52288 0.10629,-1.0196 0.29711,-1.4719 0.19138,-0.45215 0.46849,-0.85951 0.81081,-1.20182 0.34234,-0.34232 0.74968,-0.6195 1.20182,-0.81082 0.4523,-0.19138 0.94915,-0.29711 1.47203,-0.29711 z m -5.29756,0.7735 a 0.27013636,0.27013636 0 0 0 -0.14201,0.50618 l 0.65888,0.38001 a 0.27013636,0.27013636 0 1 0 0.26993,-0.46782 l -0.65876,-0.3804 a 0.27013636,0.27013636 0 0 0 -0.12815,-0.0376 z m 10.57854,0 a 0.27013636,0.27013636 0 0 0 -0.14705,0.0376 l -0.65874,0.3804 a 0.27015827,0.27015827 0 1 0 0.27031,0.46784 l 0.65848,-0.38002 a 0.27013636,0.27013636 0 0 0 -0.1231,-0.50616 z m -5.21699,0.77689 c -0.0258,0 -0.0519,0 -0.0777,0 -0.83644,0.0519 -1.47782,0.77776 -1.42564,1.61345 a 0.27013638,0.27013638 0 1 0 0.53908,-0.0336 c -0.0336,-0.54387 0.37496,-1.00692 0.92051,-1.04097 0.54555,-0.0336 1.00883,0.37431 1.04278,0.91805 0.0126,0.13592 -0.0126,0.26602 -0.0532,0.38597 -0.0429,0.12038 -0.10756,0.22989 -0.19075,0.32432 -0.0828,0.0945 -0.18487,0.17268 -0.29919,0.22963 -0.50746,0.24894 -0.8384,0.77558 -0.83943,1.34134 a 0.27013638,0.27013638 0 0 0 0,0.0126 c 0,0.0351 0,0.0737 0,0.12184 a 0.27013638,0.27013638 0 1 0 0.53958,-0.0246 c 0,-0.0454 0,-0.0777 0,-0.1063 0,-0.34841 0.22485,-0.70382 0.53921,-0.85705 0.1773,-0.088 0.33364,-0.20965 0.46252,-0.3554 0.12941,-0.1458 0.23029,-0.31655 0.29596,-0.5032 0.066,-0.18676 0.0958,-0.38973 0.083,-0.59865 -0.0504,-0.80951 -0.73479,-1.4356 -1.53795,-1.42642 z m -6.18337,2.26702 a 0.27024695,0.27024695 0 1 0 0,0.54048 h 0.76041 a 0.27024695,0.27024695 0 0 0 0,-0.54048 z m 11.44311,0 a 0.27024695,0.27024695 0 1 0 0,0.54048 h 0.76042 a 0.27024695,0.27024695 0 0 0 0,-0.54048 z m -5.31894,2.20574 a 0.27018972,0.27018972 0 0 0 0,0.54037 0.27018972,0.27018972 0 0 0 0,-0.54037 z m -1.35558,2.60559 h 2.70143 c 0.1542,0 0.26993,0.1166 0.26993,0.27043 0,0.1542 -0.11533,0.27006 -0.26993,0.27006 h -2.70143 c -0.1542,0 -0.26991,-0.11533 -0.26991,-0.27006 0,-0.15419 0.11533,-0.27043 0.26991,-0.27043 z m 8.41114,0.79941 c -0.22005,0 -0.44284,0.0441 -0.65317,0.14579 a 0.27013638,0.27013638 0 0 0 -0.0147,0.0126 c -1.98985,1.12761 -3.9824,2.25123 -5.97535,3.37379 -0.18025,-0.16323 -0.40037,-0.28755 -0.65086,-0.3545 l -7.61638,-2.03894 c -0.21073,-0.0569 -0.42432,-0.0687 -0.62845,-0.0401 -0.0933,0.0126 -0.18444,0.0336 -0.27291,0.0634 a 0.27013638,0.27013638 0 0 0 -0.0441,0.0147 0.27013638,0.27013638 0 0 0 -0.0126,0 0.27013638,0.27013638 0 0 0 -0.0246,0.0147 l -4.39246,2.52644 -0.36772,-0.63634 a 0.27013638,0.27013638 0 0 0 -0.22134,-0.13466 0.27013638,0.27013638 0 0 0 -0.14747,0.0363 l -3.18663,1.83842 a 0.27013638,0.27013638 0 0 0 -0.0983,0.36887 l 3.15398,5.45856 a 0.27013638,0.27013638 0 0 0 0.36874,0.0985 l 3.18676,-1.83829 a 0.27013638,0.27013638 0 0 0 0.0985,-0.36928 l -0.35824,-0.61989 2.30536,-1.34921 c 0.0569,-0.0189 0.11533,-0.0324 0.17562,-0.0414 0.0674,-0.0126 0.1355,-0.0126 0.20504,-0.0126 0.0687,0 0.13928,0.0147 0.20986,0.0336 l 5.84958,1.56839 c 0.211,0.0569 0.42458,0.0687 0.62857,0.0401 0.19579,-0.0271 0.38261,-0.0908 0.55216,-0.18487 a 0.27013638,0.27013638 0 0 0 0.0221,-0.0126 c 2.7978,-1.61395 5.60156,-3.21888 8.40051,-4.8331 0.64761,-0.27108 1.16091,-0.92283 1.08734,-1.6782 -0.0429,-0.79915 -0.73516,-1.39923 -1.48354,-1.45324 -0.0311,0 -0.0622,0 -0.0945,0 z m -8.17838,0.28131 h 2.2354 l -0.0126,0.35348 c -0.0189,0.62754 -0.48973,1.11531 -1.1078,1.11531 -0.61821,0 -1.09044,-0.48777 -1.10741,-1.11466 z m 8.11401,0.26747 c 0.52326,-0.0126 1.07866,0.40982 1.10404,0.94253 a 0.27013638,0.27013638 0 0 0 0,0.0147 c 0.0492,0.48156 -0.31293,0.95226 -0.77481,1.13824 a 0.27013638,0.27013638 0 0 0 -0.0336,0.0168 c -2.80181,1.61578 -5.60931,3.22301 -8.4119,4.83969 -0.11533,0.0674 -0.2439,0.11134 -0.37807,0.12962 -0.13424,0.0189 -0.27407,0.0126 -0.41473,-0.0258 l -5.84985,-1.56839 c -0.10483,-0.0286 -0.21176,-0.0454 -0.31707,-0.0519 -0.10483,0 -0.20924,0 -0.31138,0.0126 -0.0933,0.0126 -0.18318,0.0336 -0.27095,0.0622 a 0.27013638,0.27013638 0 0 0 -0.0441,0.0147 0.27013638,0.27013638 0 0 0 -0.0582,0.0311 l -2.30445,1.34884 -1.88752,-3.26655 4.37471,-2.51648 c 0.0569,-0.0189 0.1166,-0.0324 0.17605,-0.0414 0.13424,-0.0189 0.27394,-0.0126 0.41473,0.0258 l 7.61638,2.03945 c 0.5633,0.15083 0.88905,0.7147 0.73815,1.2772 -0.15084,0.56252 -0.71561,0.88814 -1.2789,0.73737 l -5.68665,-1.52253 a 0.27017554,0.27017554 0 1 0 -0.1397,0.52198 l 5.68665,1.52252 c 0.84318,0.22575 1.71422,-0.27705 1.94011,-1.11983 0.10756,-0.40269 0.0492,-0.81146 -0.13319,-1.1534 1.96525,-1.10702 3.93034,-2.21522 5.89286,-3.32728 0.11008,-0.0532 0.22951,-0.079 0.35024,-0.083 z m -20.92241,3.03766 2.88366,4.99074 -2.71891,1.56812 -2.33192,-4.0359 1.21778,-0.70292 a 0.27013638,0.27013638 0 0 0 -0.12311,-0.50565 0.27013638,0.27013638 0 0 0 -0.14705,0.0376 l -1.21803,0.70279 -0.28146,-0.487 z m 14.26772,4.39871 a 0.27013638,0.27013638 0 0 0 -0.14705,0.0376 c -0.088,0.0504 -0.17521,0.10105 -0.26281,0.15147 a 0.27013638,0.27013638 0 1 0 0.26967,0.46809 c 0.088,-0.0504 0.175,-0.10105 0.26266,-0.15147 a 0.27013638,0.27013638 0 0 0 -0.1231,-0.50605 z m -3.79642,0.49605 a 0.27013638,0.27013638 0 0 0 -0.0597,0.53196 l 1.4623,0.39206 c 0.21085,0.0569 0.42456,0.0687 0.62857,0.0401 0.19537,-0.0271 0.38183,-0.0908 0.55111,-0.18445 a 0.27013638,0.27013638 0 0 0 0.0233,-0.0126 c 0.088,-0.0504 0.17521,-0.10104 0.26281,-0.15167 a 0.27013638,0.27013638 0 0 0 -0.12311,-0.50553 0.27013638,0.27013638 0 0 0 -0.14705,0.0376 c -0.088,0.0504 -0.1752,0.10104 -0.26278,0.15146 -0.11534,0.0674 -0.2439,0.11134 -0.37808,0.12962 -0.13424,0.0189 -0.27406,0.0126 -0.41473,-0.0258 l -1.4623,-0.39232 a 0.27013638,0.27013638 0 0 0 -0.0803,-0.0126 z"/></g></svg>