<svg xmlns="http://www.w3.org/2000/svg" xmlns:xlink="http://www.w3.org/1999/xlink" version="1.1" x="0px" y="0px" viewBox="0 0 512 640" style="enable-background:new 0 0 512 512;" xml:space="preserve"><g><g><g><g><g><g><g><g><path d="M346,282.508c-57.897,0-105-47.103-105-105c0-57.897,47.103-105,105-105s105,47.103,105,105          C451,235.405,403.897,282.508,346,282.508z M346,82.507c-52.383,0-95,42.617-95,95s42.617,95,95,95s95-42.617,95-95          S398.383,82.507,346,82.507z"/></g><g><path d="M346,282.508c-2.762,0-5-2.238-5-5v-14.285c0-2.762,2.238-5,5-5s5,2.238,5,5v14.285          C351,280.27,348.762,282.508,346,282.508z"/></g><g><path d="M346,96.793c-2.762,0-5-2.239-5-5V77.507c0-2.761,2.238-5,5-5s5,2.239,5,5v14.286          C351,94.555,348.762,96.793,346,96.793z"/></g><g><path d="M260.286,182.507H246c-2.761,0-5-2.239-5-5s2.239-5,5-5h14.286c2.762,0,5,2.239,5,5          S263.048,182.507,260.286,182.507z"/></g><g><path d="M446,182.507h-14.286c-2.762,0-5-2.239-5-5s2.238-5,5-5H446c2.762,0,5,2.239,5,5S448.762,182.507,446,182.507z"/></g><g><path d="M275.289,253.218c-1.279,0-2.56-0.488-3.535-1.464c-1.953-1.953-1.953-5.119,0-7.071l10.102-10.102          c1.951-1.952,5.119-1.952,7.07,0c1.953,1.953,1.953,5.119,0,7.071l-10.102,10.102          C277.849,252.73,276.568,253.218,275.289,253.218z"/></g><g><path d="M406.609,121.898c-1.279,0-2.56-0.488-3.535-1.464c-1.953-1.953-1.953-5.119,0-7.071l10.102-10.102          c1.951-1.952,5.119-1.952,7.07,0c1.953,1.953,1.953,5.119,0,7.071l-10.102,10.102          C409.169,121.41,407.889,121.898,406.609,121.898z"/></g><g><path d="M285.391,121.898c-1.279,0-2.56-0.488-3.535-1.464l-10.102-10.102c-1.953-1.953-1.953-5.119,0-7.071          c1.951-1.952,5.119-1.952,7.07,0l10.102,10.102c1.953,1.953,1.953,5.119,0,7.071          C287.95,121.41,286.67,121.898,285.391,121.898z"/></g><g><path d="M416.711,253.218c-1.279,0-2.56-0.488-3.535-1.464l-10.102-10.102c-1.953-1.953-1.953-5.119,0-7.071          c1.951-1.952,5.119-1.952,7.07,0l10.102,10.102c1.953,1.953,1.953,5.119,0,7.071          C419.271,252.73,417.99,253.218,416.711,253.218z"/></g><g><path d="M346.001,196.793c-1.297,0-2.576-0.504-3.536-1.464l-28.571-28.572c-1.953-1.953-1.953-5.119,0-7.071          c1.951-1.952,5.119-1.952,7.07,0l26.023,26.023l25.348-12.674c2.471-1.235,5.474-0.233,6.708,2.236          c1.235,2.47,0.234,5.474-2.235,6.708l-28.571,14.286C347.525,196.621,346.761,196.793,346.001,196.793z"/></g></g></g></g></g><g><path d="M346,322.508c-79.953,0-145-65.047-145-145c0-79.953,65.047-145,145-145s145,65.047,145,145      C491,257.461,425.953,322.508,346,322.508z M346,42.507c-74.439,0-135,60.561-135,135s60.561,135,135,135s135-60.561,135-135      S420.439,42.507,346,42.507z"/></g><g><path d="M261.147,465.35c-1.279,0-2.56-0.488-3.535-1.465c-1.953-1.952-1.953-5.118,0-7.07L441.46,272.967      c1.951-1.953,5.119-1.953,7.07,0c1.953,1.952,1.953,5.118,0,7.07L264.683,463.885      C263.707,464.861,262.427,465.35,261.147,465.35z"/></g><g><path d="M56.086,274.432c-1.28,0-2.559-0.488-3.536-1.465c-1.953-1.952-1.953-5.118,0-7.07l190.919-190.92      c1.953-1.952,5.118-1.952,7.071,0c1.953,1.953,1.953,5.119,0,7.071L59.622,272.967      C58.645,273.943,57.366,274.432,56.086,274.432z"/></g><g><path d="M27.802,373.426c-1.28,0-2.559-0.488-3.536-1.465c-1.953-1.952-1.953-5.118,0-7.07l137.317-137.318      c1.953-1.952,5.118-1.952,7.071,0c1.953,1.953,1.953,5.119,0,7.071L31.337,371.961      C30.361,372.938,29.082,373.426,27.802,373.426z"/></g><g><path d="M183.365,444.137c-1.28,0-2.559-0.488-3.536-1.465c-1.953-1.952-1.953-5.118,0-7.07l91.924-91.924      c1.951-1.953,5.119-1.953,7.07,0c1.953,1.952,1.953,5.118,0,7.07l-91.923,91.924      C185.924,443.648,184.645,444.137,183.365,444.137z"/></g><g><path d="M26,436.99c-1.28,0-2.559-0.488-3.536-1.465c-1.953-1.952-1.953-5.118,0-7.07l49.498-49.498      c1.953-1.953,5.118-1.953,7.071,0c1.953,1.952,1.953,5.118,0,7.07l-49.498,49.498C28.559,436.502,27.28,436.99,26,436.99z"/></g><g><path d="M48.01,479.492c-1.28,0-2.559-0.488-3.536-1.465c-1.953-1.952-1.953-5.118,0-7.07l197.99-197.99      c1.953-1.953,5.118-1.953,7.071,0c1.953,1.952,1.953,5.118,0,7.07l-197.99,197.99C50.569,479.004,49.29,479.492,48.01,479.492z"/></g><g><path d="M85,145c-16.542,0-30-13.458-30-30s13.458-30,30-30s30,13.458,30,30S101.542,145,85,145z M85,95      c-11.028,0-20,8.972-20,20s8.972,20,20,20s20-8.972,20-20S96.028,95,85,95z"/></g><g><path d="M410,465c-19.299,0-35-15.701-35-35s15.701-35,35-35s35,15.701,35,35S429.299,465,410,465z M410,405      c-13.785,0-25,11.215-25,25s11.215,25,25,25s25-11.215,25-25S423.785,405,410,405z"/></g><circle cx="180" cy="50" r="10"/><circle cx="60" cy="190" r="10"/><circle cx="100" cy="360" r="10"/><circle cx="450" cy="360" r="10"/><circle cx="330" cy="450" r="10"/><circle cx="160" cy="460" r="10"/></g></g></g><text x="0" y="527" fill="#000000" font-size="5px" font-weight="bold" font-family="'Helvetica Neue', Helvetica, Arial-Unicode, Arial, Sans-serif">Created by Flatart</text><text x="0" y="532" fill="#000000" font-size="5px" font-weight="bold" font-family="'Helvetica Neue', Helvetica, Arial-Unicode, Arial, Sans-serif">from the Noun Project</text></svg>