<svg xmlns="http://www.w3.org/2000/svg" xmlns:xlink="http://www.w3.org/1999/xlink" version="1.1" x="0px" y="0px" viewBox="0 0 520 650" style="enable-background:new 0 0 520 520;" xml:space="preserve"><g><g><path d="M430,300.002H190c-2.761,0-5,2.238-5,5v40c0,2.761,2.239,5,5,5h240c2.762,0,5-2.239,5-5v-40    C435,302.24,432.762,300.002,430,300.002z M425,340.002H195v-30h20v10c0,2.761,2.239,5,5,5s5-2.239,5-5v-10h20v10    c0,2.761,2.239,5,5,5s5-2.239,5-5v-10h20v10c0,2.761,2.238,5,5,5c2.762,0,5-2.239,5-5v-10h20v10c0,2.761,2.238,5,5,5    c2.762,0,5-2.239,5-5v-10h20v10c0,2.761,2.238,5,5,5c2.762,0,5-2.239,5-5v-10h20v10c0,2.761,2.238,5,5,5c2.762,0,5-2.239,5-5v-10    h20v10c0,2.761,2.238,5,5,5c2.762,0,5-2.239,5-5v-10h20V340.002z"/><circle cx="261" cy="396" r="10"/><circle cx="472.498" cy="57.502" r="7.5"/><circle cx="157.498" cy="87.498" r="7.5"/><circle cx="47.502" cy="77.498" r="7.5"/><path d="M115,80.002c13.785,0,25-11.215,25-25c0-13.785-11.215-25-25-25s-25,11.215-25,25C90,68.787,101.215,80.002,115,80.002z     M115,40.001c8.271,0,15,6.729,15,15s-6.729,15-15,15s-15-6.729-15-15S106.729,40.001,115,40.001z"/><path d="M405,90.002c11.028,0,20-8.972,20-20c0-11.028-8.972-20-20-20c-11.028,0-20,8.972-20,20    C385,81.029,393.972,90.002,405,90.002z M405,60.001c5.514,0,10,4.486,10,10c0,5.514-4.486,10-10,10s-10-4.486-10-10    C395,64.487,399.486,60.001,405,60.001z"/><path d="M449.5,100.002h-89.014c2.332-4.58,3.53-9.686,3.448-14.97c-0.238-15.523-19.73-43.836-28.689-57.738    c-1.207-1.875-3.512-2.72-5.643-2.08c-2.135,0.642-3.587,2.619-3.56,4.848c0.118,9.896-7.49,21.022-14.204,30.838    c-6.415,9.379-11.955,17.479-11.837,25.117c0.135,8.737,3.837,16.652,9.691,22.361l3.042,21.624H290v-100c0-2.761-2.238-5-5-5h-35    c-2.761,0-5,2.239-5,5v100h-12v-51c0-0.697-0.145-1.36-0.402-1.963c-0.459-1.074-20.959-48.906-21.002-49.006    c-1.726-4.026-7.46-4.038-9.191,0l-21,49c-0.099,0.312-0.404,0.893-0.404,1.97v21H70.5c-19.575,0-35.5,15.925-35.5,35.5v259.001    c0,19.574,15.925,35.5,35.5,35.5H206v55h-14c-2.761,0-5,2.238-5,5c0,2.761,2.239,5,5,5c6.261,0,37.781,0,44,0    c36.433,0,62.499,0,94,0c2.762,0,5-2.239,5-5c0-2.762-2.238-5-5-5h-14v-55h133.5c19.575,0,35.5-15.926,35.5-35.5V135.501    C485,115.927,469.075,100.002,449.5,100.002z M333.548,43.071c8.639,13.477,20.243,32.643,20.389,42.115    c0.186,12.139-9.489,22.119-21.631,22.306l-0.348,0.003c-11.924,0-21.773-9.704-21.958-21.632    C309.869,77.351,327.297,59.954,333.548,43.071z M320.786,115.45c7.709,2.912,16.014,2.624,23.221-0.301l-1.625,14.853h-19.549    L320.786,115.45z M75,320.002c11.632,0,46.2,0,60,0c2.761,0,5-2.239,5-5c0-2.762-2.239-5-5-5h-27.72l24.737-64.317    c1.287,0.088,2.179,0.088,3.466,0l27.351,71.111c0.993,2.582,3.891,3.861,6.461,2.871c2.577-0.991,3.863-3.884,2.872-6.461    l-26.998-70.196c8.199-4.176,13.832-12.695,13.832-22.51c0-12.212-8.714-22.424-20.25-24.751v-15.749c0-2.761-2.239-5-5-5    s-5,2.239-5,5v15.749c-11.536,2.327-20.25,12.539-20.25,24.751c0,9.815,5.633,18.334,13.832,22.51l-25.766,66.991H75V140.001    h81.802c-2.4,3.578-3.802,7.878-3.802,12.5c0,12.407,10.093,22.5,22.5,22.5h189c12.406,0,22.5-10.093,22.5-22.5    c0-4.622-1.402-8.922-3.802-12.5H445v220.001H75V320.002z M118.5,220.501c0-8.409,6.841-15.25,15.25-15.25    c8.409,0,15.25,6.841,15.25,15.25c0,5.56-3,10.419-7.457,13.084c-3.379-8.753-3.084-8.101-3.429-8.728    c-0.227-0.414-0.167-0.342-0.525-0.775c-0.345-0.418-0.271-0.339-0.668-0.668c-0.433-0.356-0.366-0.302-0.78-0.528    c-0.16-0.088-0.318-0.176-0.486-0.246c-0.039-0.016-0.071-0.04-0.111-0.056c-0.102-0.039-0.207-0.052-0.309-0.085    c-0.172-0.054-0.342-0.107-0.52-0.142c-0.218-0.043-0.737-0.094-0.963-0.095c-0.239,0-0.762,0.054-0.965,0.094    c-0.179,0.036-0.351,0.089-0.525,0.144c-0.102,0.032-0.206,0.045-0.308,0.084c-0.04,0.015-0.072,0.039-0.11,0.056    c-0.168,0.069-0.325,0.158-0.484,0.245c-0.431,0.236-0.341,0.167-0.778,0.526c-0.404,0.333-0.325,0.25-0.669,0.669    c-0.354,0.428-0.301,0.363-0.526,0.777c-0.088,0.161-0.177,0.32-0.247,0.49c-0.016,0.038-0.04,0.07-0.055,0.109l-3.126,8.129    C121.5,230.921,118.5,226.061,118.5,220.501z M377,152.501c0,6.893-5.607,12.5-12.5,12.5h-189c-6.893,0-12.5-5.607-12.5-12.5    c0-6.893,5.607-12.5,12.5-12.5c8.242,0,151.137,0.001,142.981,0.001c84.365-0.001,14.058,0,46.019-0.001    C371.393,140.001,377,145.609,377,152.501z M191,84.002h11v46h-11V84.002z M255,35.001h25v5h-10c-2.762,0-5,2.239-5,5    c0,2.761,2.238,5,5,5h10v5h-10c-2.762,0-5,2.239-5,5c0,2.761,2.238,5,5,5h10v5h-10c-2.762,0-5,2.239-5,5c0,2.761,2.238,5,5,5h10v5    h-10c-2.762,0-5,2.239-5,5c0,2.761,2.238,5,5,5h10v5h-10c-2.762,0-5,2.239-5,5c0,2.761,2.238,5,5,5h10v5h-10c-2.762,0-5,2.239-5,5    c0,2.761,2.238,5,5,5h10v5h-25V35.001z M212,130.001v-46h11v46H212z M207,42.694l13.417,31.307h-26.835L207,42.694z M216,431.002    h15v54h-15V431.002z M241,485.002v-54h40v54H241z M291,485.002v-54h15v54H291z M475,394.502c0,14.06-11.44,25.5-25.5,25.5h-379    c-14.061,0-25.5-11.44-25.5-25.5V135.501c0-14.061,11.439-25.5,25.5-25.5H181v20c-16.653,0-98.74,0-111,0c-2.761,0-5,2.239-5,5    v230.001c0,2.761,2.239,5,5,5h380c2.762,0,5-2.239,5-5V135.001c0-2.761-2.238-5-5-5c-25.875,0-73.541,0-97.558,0l2.188-20h94.87    c14.06,0,25.5,11.439,25.5,25.5V394.502z"/><path d="M245,245.001h15c2.762,0,5-2.239,5-5c0-2.761-2.238-5-5-5h-15c-2.761,0-5,2.239-5,5    C240,242.763,242.239,245.001,245,245.001z"/><path d="M320,240.001c0-2.761-2.238-5-5-5h-40c-2.762,0-5,2.239-5,5c0,2.761,2.238,5,5,5h40    C317.762,245.001,320,242.763,320,240.001z"/><path d="M245,265.002h20c2.762,0,5-2.239,5-5c0-2.762-2.238-5.001-5-5.001h-20c-2.761,0-5,2.239-5,5.001    C240,262.763,242.239,265.002,245,265.002z"/><path d="M330,260.002c0-2.762-2.238-5.001-5-5.001h-45c-2.762,0-5,2.239-5,5.001c0,2.761,2.238,5,5,5h45    C327.762,265.002,330,262.763,330,260.002z"/><path d="M245,285.002h25c2.762,0,5-2.239,5-5c0-2.762-2.238-5-5-5h-25c-2.761,0-5,2.238-5,5    C240,282.763,242.239,285.002,245,285.002z"/><path d="M285,275.002c-2.762,0-5,2.238-5,5c0,2.761,2.238,5,5,5h25c2.762,0,5-2.239,5-5c0-2.762-2.238-5-5-5H285z"/><path d="M350,265.002c2.762,0,5-2.239,5-5c0-2.762-2.238-5.001-5-5.001h-10c-2.762,0-5,2.239-5,5.001c0,2.761,2.238,5,5,5H350z"/><path d="M330,245.001h25c2.762,0,5-2.239,5-5c0-2.761-2.238-5-5-5h-25c-2.762,0-5,2.239-5,5    C325,242.763,327.238,245.001,330,245.001z"/><path d="M370,245.001h10c2.762,0,5-2.239,5-5c0-2.761-2.238-5-5-5h-10c-2.762,0-5,2.239-5,5    C365,242.763,367.238,245.001,370,245.001z"/><path d="M325,285.002h10c2.762,0,5-2.239,5-5c0-2.762-2.238-5-5-5h-10c-2.762,0-5,2.238-5,5    C320,282.763,322.238,285.002,325,285.002z"/><path d="M245,205.001h25c2.762,0,5-2.239,5-5c0-2.761-2.238-5-5-5h-25c-2.761,0-5,2.239-5,5    C240,202.763,242.239,205.001,245,205.001z"/><path d="M285,205.001h25c2.762,0,5-2.239,5-5c0-2.761-2.238-5-5-5h-25c-2.762,0-5,2.239-5,5    C280,202.763,282.238,205.001,285,205.001z"/><path d="M245,225.001h50c2.762,0,5-2.239,5-5c0-2.761-2.238-5-5-5h-50c-2.761,0-5,2.239-5,5    C240,222.763,242.239,225.001,245,225.001z"/><path d="M305,220.001c0,2.761,2.238,5,5,5h10c2.762,0,5-2.239,5-5c0-2.761-2.238-5-5-5h-10    C307.238,215.001,305,217.24,305,220.001z"/><path d="M335,225.001h25c2.762,0,5-2.239,5-5c0-2.761-2.238-5-5-5h-25c-2.762,0-5,2.239-5,5    C330,222.763,332.238,225.001,335,225.001z"/><path d="M215,285.002h10c2.761,0,5-2.239,5-5c0-2.762-2.239-5-5-5h-10c-2.761,0-5,2.238-5,5    C210,282.763,212.239,285.002,215,285.002z"/><path d="M215,265.002h10c2.761,0,5-2.239,5-5c0-2.762-2.239-5.001-5-5.001h-10c-2.761,0-5,2.239-5,5.001    C210,262.763,212.239,265.002,215,265.002z"/><path d="M215,245.001h10c2.761,0,5-2.239,5-5c0-2.761-2.239-5-5-5h-10c-2.761,0-5,2.239-5,5    C210,242.763,212.239,245.001,215,245.001z"/><path d="M215,225.001h10c2.761,0,5-2.239,5-5c0-2.761-2.239-5-5-5h-10c-2.761,0-5,2.239-5,5    C210,222.763,212.239,225.001,215,225.001z"/><path d="M215,205.001h10c2.761,0,5-2.239,5-5c0-2.761-2.239-5-5-5h-10c-2.761,0-5,2.239-5,5    C210,202.763,212.239,205.001,215,205.001z"/></g></g><text x="0" y="535" fill="#000000" font-size="5px" font-weight="bold" font-family="'Helvetica Neue', Helvetica, Arial-Unicode, Arial, Sans-serif">Created by Flatart</text><text x="0" y="540" fill="#000000" font-size="5px" font-weight="bold" font-family="'Helvetica Neue', Helvetica, Arial-Unicode, Arial, Sans-serif">from the Noun Project</text></svg>