<svg xmlns="http://www.w3.org/2000/svg" data-name="Layer 1" viewBox="0 0 100 125" x="0px" y="0px"><path d="M94.634,43.868,81.89,31.124a1.251,1.251,0,0,0-1.768,0L67.378,43.868A1.25,1.25,0,0,0,68.262,46H75.4V68.777a1.25,1.25,0,0,0,1.25,1.25H85.36a1.25,1.25,0,0,0,1.25-1.25V46h7.14a1.25,1.25,0,0,0,.884-2.134ZM85.36,43.5a1.25,1.25,0,0,0-1.25,1.25V67.527H77.9V44.752a1.249,1.249,0,0,0-1.25-1.25H71.28l9.726-9.727L90.732,43.5ZM32.893,45.23a1.252,1.252,0,0,0-.271-1.362L19.878,31.124a1.251,1.251,0,0,0-1.768,0L5.366,43.868A1.25,1.25,0,0,0,6.25,46h7.14V68.777a1.25,1.25,0,0,0,1.25,1.25h8.709a1.25,1.25,0,0,0,1.25-1.25V46h7.139A1.251,1.251,0,0,0,32.893,45.23ZM23.349,43.5a1.249,1.249,0,0,0-1.25,1.25V67.527H15.89V44.752a1.25,1.25,0,0,0-1.25-1.25H9.268l9.726-9.727L28.72,43.5ZM50,54.048A12.651,12.651,0,1,0,62.651,66.7,12.665,12.665,0,0,0,50,54.048Zm0,22.8A10.151,10.151,0,1,1,60.151,66.7,10.163,10.163,0,0,1,50,76.85ZM72.135,62.435l-4.578-.63a18.072,18.072,0,0,0-1.683-4.059l2.792-3.684a1.25,1.25,0,0,0-.112-1.639l-4.278-4.278a1.25,1.25,0,0,0-1.639-.113l-3.685,2.792a18.228,18.228,0,0,0-2.408-1.136V28.08h8.949a1.249,1.249,0,0,0,.884-2.133L50.884,10.453a1.251,1.251,0,0,0-1.768,0L33.623,25.947a1.249,1.249,0,0,0,.884,2.133h8.949V49.689a18.1,18.1,0,0,0-2.408,1.135l-3.685-2.792a1.25,1.25,0,0,0-1.639.113l-4.278,4.278a1.25,1.25,0,0,0-.113,1.639l2.793,3.684a18.091,18.091,0,0,0-1.683,4.059l-4.578.63a1.25,1.25,0,0,0-1.079,1.238v6.051a1.25,1.25,0,0,0,1.079,1.238l4.578.631a18.064,18.064,0,0,0,1.683,4.058l-2.792,3.685a1.248,1.248,0,0,0,.112,1.638l4.278,4.279a1.251,1.251,0,0,0,1.639.112l3.685-2.792a18.064,18.064,0,0,0,4.058,1.683l.63,4.577a1.251,1.251,0,0,0,1.239,1.08h6.05a1.251,1.251,0,0,0,1.239-1.08l.63-4.578a18.061,18.061,0,0,0,4.058-1.682l3.685,2.792a1.251,1.251,0,0,0,1.639-.112l4.278-4.279a1.248,1.248,0,0,0,.112-1.638l-2.792-3.685a18.091,18.091,0,0,0,1.683-4.059l4.578-.63a1.25,1.25,0,0,0,1.079-1.238V63.673A1.25,1.25,0,0,0,72.135,62.435ZM37.525,25.58,50,13.105,62.475,25.58H55.294a1.25,1.25,0,0,0-1.25,1.25V44.011a1.249,1.249,0,0,0-1.019-.527h-6.05a1.249,1.249,0,0,0-1.019.527V26.83a1.25,1.25,0,0,0-1.25-1.25ZM70.714,68.634l-4.333.6a1.25,1.25,0,0,0-1.049.962,15.586,15.586,0,0,1-2.021,4.875,1.251,1.251,0,0,0,.061,1.421l2.644,3.488-2.737,2.737-3.488-2.643a1.251,1.251,0,0,0-1.422-.061,15.634,15.634,0,0,1-4.875,2.021,1.249,1.249,0,0,0-.961,1.048l-.6,4.334H48.064l-.6-4.333a1.251,1.251,0,0,0-.962-1.049,15.586,15.586,0,0,1-4.875-2.021,1.251,1.251,0,0,0-1.422.061l-3.488,2.643-2.737-2.737,2.643-3.488a1.249,1.249,0,0,0,.062-1.421,15.567,15.567,0,0,1-2.021-4.875,1.25,1.25,0,0,0-1.049-.962l-4.333-.6V64.763l4.333-.6a1.25,1.25,0,0,0,1.049-.962,15.586,15.586,0,0,1,2.021-4.875,1.251,1.251,0,0,0-.061-1.421L33.984,53.42l2.737-2.737,3.489,2.643a1.249,1.249,0,0,0,1.421.061,15.614,15.614,0,0,1,4.875-2.021,1.25,1.25,0,0,0,.962-1.048l.6-4.334h3.872l.6,4.333a1.251,1.251,0,0,0,.962,1.049,15.614,15.614,0,0,1,4.875,2.021,1.251,1.251,0,0,0,1.422-.061l3.488-2.643,2.737,2.737-2.643,3.488a1.249,1.249,0,0,0-.062,1.421A15.567,15.567,0,0,1,65.332,63.2a1.25,1.25,0,0,0,1.049.962l4.333.6ZM55.09,65.449H52.453a2.771,2.771,0,0,0-1.2-1.2V60.331a1.25,1.25,0,0,0-2.5,0v3.914a2.754,2.754,0,1,0,3.7,3.7H55.09a1.25,1.25,0,0,0,0-2.5ZM50,66.955a.257.257,0,1,1,.256-.256A.26.26,0,0,1,50,66.955Z"/><text x="0" y="115" fill="#000000" font-size="5px" font-weight="bold" font-family="'Helvetica Neue', Helvetica, Arial-Unicode, Arial, Sans-serif">Created by ramacae</text><text x="0" y="120" fill="#000000" font-size="5px" font-weight="bold" font-family="'Helvetica Neue', Helvetica, Arial-Unicode, Arial, Sans-serif">from the Noun Project</text></svg>