<svg xmlns="http://www.w3.org/2000/svg" data-name="Layer 1" viewBox="0 0 422.49 640" x="0px" y="0px"><path d="M329.4,286.434c-3.472,0-8.623,1.644-14.3,14.934l-33.745-21.179c15.992-71.7-9.057-183.2-34.468-241.215C231.587,4.04,221.262,0,214.825,0s-16.762,4.04-32.063,38.974c-25.411,58.011-50.46,169.515-34.468,241.215l-33.745,21.179c-5.674-13.29-10.826-14.934-14.3-14.934-3.738,0-9.423,1.884-15.612,18.187-6.511,17.155-9.857,40.966,2.15,51.617a7.162,7.162,0,0,0,4.752,1.8h17.42a7.162,7.162,0,0,0,4.751-1.8c4.005-3.552,6.272-8.585,7.313-14.33L167.407,325.9l-6.148,30.739a7.158,7.158,0,0,0,7.021,8.565h93.091a7.16,7.16,0,0,0,7.021-8.565L262.244,325.9l46.38,16.009c1.041,5.745,3.308,10.778,7.313,14.33a7.162,7.162,0,0,0,4.752,1.8h17.419a7.162,7.162,0,0,0,4.752-1.8c12.007-10.651,8.661-34.462,2.15-51.617C338.822,288.318,333.136,286.434,329.4,286.434Zm-18.978,28.9a84.852,84.852,0,0,0-2.078,11.321l-39.106-13.5a104.585,104.585,0,0,0,8.18-18.536ZM183.172,78.769h63.306q2.166,6.745,4.364,14.322H178.809Q181,85.525,183.172,78.769ZM214.825,14.4c4.008,1.671,14.58,16.2,26.782,50.053H188.043C200.246,30.59,210.818,16.066,214.825,14.4Zm-39.978,93.018H254.8c20.692,78.91,26.891,170.123-4.044,207.664h-19.7a210.42,210.42,0,0,0,1.673-28.643c0-49.845-11.217-57.287-17.9-57.287s-17.9,7.442-17.9,57.287a210.42,210.42,0,0,0,1.673,28.643h-19.7C147.957,277.536,154.156,186.323,174.847,107.413Zm39.075,211.411a173.388,173.388,0,0,1-2.677-32.39c0-16.8,1.745-29.208,3.58-36.56,1.836,7.352,3.581,19.761,3.581,36.56a173.286,173.286,0,0,1-2.678,32.39C215.171,319.843,214.48,319.843,213.922,318.824Zm-53.509-5.662-39.105,13.5a85.173,85.173,0,0,0-2.078-11.321l33-20.713A104.658,104.658,0,0,0,160.413,313.162ZM105.587,343.72H94.916c-1.171-2.162-1.808-5.46-1.825-9.585-.046-10.6,3.916-22.939,7.161-29.647,3.245,6.708,7.206,19.047,7.161,29.647C107.4,338.26,106.759,341.558,105.587,343.72Zm71.427,7.161,4.3-21.482h20.394c3.853,11.8,9.246,14.321,13.12,14.321s9.267-2.519,13.12-14.321h20.394l4.3,21.482Zm157.72-7.161H324.063c-1.171-2.162-1.808-5.46-1.825-9.585-.046-10.6,3.916-22.939,7.161-29.647,3.244,6.708,7.206,19.047,7.16,29.647C336.542,338.26,335.906,341.558,334.734,343.72Z"/><path d="M214.825,214.825a35.8,35.8,0,1,0-35.8-35.8A35.845,35.845,0,0,0,214.825,214.825Zm0-57.287a21.483,21.483,0,1,1-21.482,21.483A21.507,21.507,0,0,1,214.825,157.538Z"/><path d="M248.783,374.428a7.179,7.179,0,0,0-.1,10.116c.993,1.019,22.738,23.959,6.954,57.229l-8.024-5.007a7.16,7.16,0,0,0-10.025,2.549l-22.762,40.239-22.762-40.239a7.16,7.16,0,0,0-10.025-2.549l-8.024,5.007c-15.783-33.27,5.962-56.21,6.93-57.207a7.16,7.16,0,0,0-10.168-10.083c-.339.34-33.5,34.643-5.584,81.092a7.156,7.156,0,0,0,9.927,2.387l8.157-5.09,25.315,44.752a7.163,7.163,0,0,0,12.468,0l25.315-44.752,8.157,5.09a7.156,7.156,0,0,0,9.927-2.387c27.92-46.449-5.245-80.752-5.584-81.092A7.146,7.146,0,0,0,248.783,374.428Z"/><path d="M214.825,443.545a7.162,7.162,0,0,0,5.6-2.695c.794-1,19.465-24.745,19.465-54.591a7.161,7.161,0,0,0-14.322,0c0,15.07-6.01,28.657-10.741,37.015-4.731-8.361-10.741-21.947-10.741-37.015a7.161,7.161,0,0,0-14.322,0c0,29.846,18.672,53.594,19.465,54.591A7.162,7.162,0,0,0,214.825,443.545Z"/><path d="M100.252,372.364a7.161,7.161,0,0,0-7.161,7.16v64.448a7.161,7.161,0,1,0,14.322,0V379.524A7.161,7.161,0,0,0,100.252,372.364Z"/><path d="M100.252,461.874a7.161,7.161,0,0,0-7.161,7.161v14.322a7.161,7.161,0,0,0,14.322,0V469.035A7.162,7.162,0,0,0,100.252,461.874Z"/><path d="M136.056,393.846a7.161,7.161,0,0,0-7.161,7.161v64.448a7.161,7.161,0,0,0,14.322,0V401.007A7.162,7.162,0,0,0,136.056,393.846Z"/><path d="M136.056,483.357a7.161,7.161,0,0,0-7.161,7.16v14.322a7.161,7.161,0,0,0,14.322,0V490.517A7.161,7.161,0,0,0,136.056,483.357Z"/><path d="M293.594,350.881a7.161,7.161,0,0,0-7.16,7.161V422.49a7.161,7.161,0,0,0,14.321,0V358.042A7.161,7.161,0,0,0,293.594,350.881Z"/><path d="M293.594,440.392a7.16,7.16,0,0,0-7.16,7.16v14.322a7.161,7.161,0,1,0,14.321,0V447.552A7.161,7.161,0,0,0,293.594,440.392Z"/><path d="M329.4,372.364a7.161,7.161,0,0,0-7.161,7.16v64.448a7.161,7.161,0,1,0,14.321,0V379.524A7.16,7.16,0,0,0,329.4,372.364Z"/><path d="M329.4,461.874a7.161,7.161,0,0,0-7.161,7.161v14.322a7.161,7.161,0,0,0,14.321,0V469.035A7.161,7.161,0,0,0,329.4,461.874Z"/><polygon points="85.93 85.93 85.93 71.608 71.608 71.608 71.608 57.287 57.287 57.287 57.287 71.608 42.965 71.608 42.965 85.93 57.287 85.93 57.287 100.252 71.608 100.252 71.608 85.93 85.93 85.93"/><polygon points="386.685 164.699 386.685 150.378 401.007 150.378 401.007 136.056 386.685 136.056 386.685 121.734 372.364 121.734 372.364 136.056 358.042 136.056 358.042 150.378 372.364 150.378 372.364 164.699 386.685 164.699"/><polygon points="28.643 229.147 14.322 229.147 14.322 243.469 0 243.469 0 257.79 14.322 257.79 14.322 272.112 28.643 272.112 28.643 257.79 42.965 257.79 42.965 243.469 28.643 243.469 28.643 229.147"/><polygon points="422.49 361.622 408.168 361.622 408.168 347.301 393.846 347.301 393.846 361.622 379.524 361.622 379.524 375.944 393.846 375.944 393.846 390.266 408.168 390.266 408.168 375.944 422.49 375.944 422.49 361.622"/><text x="0" y="527" fill="#000000" font-size="5px" font-weight="bold" font-family="'Helvetica Neue', Helvetica, Arial-Unicode, Arial, Sans-serif">Created by tulpahn</text><text x="0" y="532" fill="#000000" font-size="5px" font-weight="bold" font-family="'Helvetica Neue', Helvetica, Arial-Unicode, Arial, Sans-serif">from the Noun Project</text></svg>