<svg xmlns="http://www.w3.org/2000/svg" xmlns:xlink="http://www.w3.org/1999/xlink" version="1.1" x="0px" y="0px" viewBox="0 0 520 650" style="enable-background:new 0 0 520 520;" xml:space="preserve"><g><g><circle cx="253.5" cy="393.332" r="10"/><path d="M322.5,162.333h-15c-2.762,0-5,2.239-5,5s2.238,5,5,5h15c2.762,0,5-2.239,5-5S325.262,162.333,322.5,162.333z"/><path d="M322.5,182.333h-15c-2.762,0-5,2.239-5,5s2.238,5,5,5h15c2.762,0,5-2.239,5-5S325.262,182.333,322.5,182.333z"/><path d="M322.5,202.333h-15c-2.762,0-5,2.239-5,5s2.238,5,5,5h15c2.762,0,5-2.239,5-5S325.262,202.333,322.5,202.333z"/><path d="M322.5,222.333h-15c-2.762,0-5,2.239-5,5s2.238,5,5,5h15c2.762,0,5-2.239,5-5S325.262,222.333,322.5,222.333z"/><path d="M322.5,242.333h-15c-2.762,0-5,2.239-5,5s2.238,5,5,5h15c2.762,0,5-2.239,5-5S325.262,242.333,322.5,242.333z"/><path d="M322.5,262.334h-15c-2.762,0-5,2.238-5,5c0,2.761,2.238,5,5,5h15c2.762,0,5-2.239,5-5    C327.5,264.572,325.262,262.334,322.5,262.334z"/><path d="M322.5,282.334h-15c-2.762,0-5,2.238-5,5c0,2.761,2.238,5,5,5h15c2.762,0,5-2.239,5-5    C327.5,284.572,325.262,282.334,322.5,282.334z"/><path d="M337.5,167.333c0,2.761,2.238,5,5,5h25c2.762,0,5-2.239,5-5s-2.238-5-5-5h-25    C339.738,162.333,337.5,164.572,337.5,167.333z"/><path d="M377.5,167.333c0,2.761,2.238,5,5,5h40c2.762,0,5-2.239,5-5s-2.238-5-5-5h-40    C379.738,162.333,377.5,164.572,377.5,167.333z"/><path d="M342.5,192.333h50c2.762,0,5-2.239,5-5s-2.238-5-5-5h-50c-2.762,0-5,2.239-5,5S339.738,192.333,342.5,192.333z"/><path d="M422.5,187.333c0-2.761-2.238-5-5-5h-10c-2.762,0-5,2.239-5,5s2.238,5,5,5h10    C420.262,192.333,422.5,190.094,422.5,187.333z"/><path d="M427.5,187.333c0,2.761,2.238,5,5,5h15c2.762,0,5-2.239,5-5s-2.238-5-5-5h-15    C429.738,182.333,427.5,184.572,427.5,187.333z"/><path d="M342.5,212.333h15c2.762,0,5-2.239,5-5s-2.238-5-5-5h-15c-2.762,0-5,2.239-5,5S339.738,212.333,342.5,212.333z"/><path d="M372.5,202.333c-2.762,0-5,2.239-5,5s2.238,5,5,5h40c2.762,0,5-2.239,5-5s-2.238-5-5-5H372.5z"/><path d="M342.5,232.333h20c2.762,0,5-2.239,5-5s-2.238-5-5-5h-20c-2.762,0-5,2.239-5,5S339.738,232.333,342.5,232.333z"/><path d="M427.5,232.333c2.762,0,5-2.239,5-5s-2.238-5-5-5h-50c-2.762,0-5,2.239-5,5s2.238,5,5,5H427.5z"/><path d="M342.5,252.333h25c2.762,0,5-2.239,5-5s-2.238-5-5-5h-25c-2.762,0-5,2.239-5,5S339.738,252.333,342.5,252.333z"/><path d="M457.5,242.333h-75c-2.762,0-5,2.239-5,5s2.238,5,5,5h75c2.762,0,5-2.239,5-5S460.262,242.333,457.5,242.333z"/><path d="M342.5,272.334h50c2.762,0,5-2.239,5-5c0-2.762-2.238-5-5-5h-50c-2.762,0-5,2.238-5,5    C337.5,270.095,339.738,272.334,342.5,272.334z"/><path d="M417.5,262.334h-10c-2.762,0-5,2.238-5,5c0,2.761,2.238,5,5,5h10c2.762,0,5-2.239,5-5    C422.5,264.572,420.262,262.334,417.5,262.334z"/><path d="M447.5,272.334c2.762,0,5-2.239,5-5c0-2.762-2.238-5-5-5h-15c-2.762,0-5,2.238-5,5c0,2.761,2.238,5,5,5H447.5z"/><path d="M357.5,282.334h-15c-2.762,0-5,2.238-5,5c0,2.761,2.238,5,5,5h15c2.762,0,5-2.239,5-5    C362.5,284.572,360.262,282.334,357.5,282.334z"/><path d="M412.5,282.334h-40c-2.762,0-5,2.238-5,5c0,2.761,2.238,5,5,5h40c2.762,0,5-2.239,5-5    C417.5,284.572,415.262,282.334,412.5,282.334z"/><path d="M452.5,282.334h-25c-2.762,0-5,2.238-5,5c0,2.761,2.238,5,5,5h25c2.762,0,5-2.239,5-5    C457.5,284.572,455.262,282.334,452.5,282.334z"/><circle cx="190.002" cy="74.834" r="7.5"/><circle cx="125.002" cy="49.83" r="7.5"/><path d="M492.222,70.756c-0.094-0.283-0.029-0.276-0.432-0.954c-0.06-0.101-0.203-0.454-0.756-1.007    c-43.571-43.521-39.996-40.162-40.991-40.746c-1.82-1.087,6.327-0.681-157.543-0.717c-8.822,0-16,7.178-16,16v54H63    c-19.575,0-35.5,15.925-35.5,35.5v259.001c0,19.574,15.925,35.5,35.5,35.5h135.5v55h-14c-2.761,0-5,2.238-5,5c0,2.761,2.239,5,5,5    c6.261,0,37.781,0,44,0c36.433,0,62.499,0,94,0c2.762,0,5-2.239,5-5c0-2.762-2.238-5-5-5h-14v-55H442    c19.575,0,35.5-15.926,35.5-35.5v-64.551c8.355-0.521,15-7.465,15-15.949V72.333C492.5,71.557,492.352,71.14,492.222,70.756z     M452.5,44.404l22.929,22.929H452.5V44.404z M67.5,332.334h175c2.761,0,5-2.239,5-5c0-2.762-2.239-5-5-5h-175v-10h175    c2.761,0,5-2.239,5-5c0-2.762-2.239-5-5-5h-175V137.333h209v174.001c0,8.822,7.178,16,16,16h145v30h-370V332.334z M208.5,427.334    h15v55h-15V427.334z M233.5,482.334v-55h40v55H233.5z M298.5,482.334h-15v-55h15V482.334z M442,417.334c-7.455,0-368.116,0-379,0    c-14.061,0-25.5-11.44-25.5-25.5V132.833c0-14.06,11.439-25.5,25.5-25.5h213.5v20h-214c-2.761,0-5,2.239-5,5v230.001    c0,2.761,2.239,5,5,5h380c2.762,0,5-2.239,5-5v-35h20v64.5C467.5,405.895,456.06,417.334,442,417.334z M476.5,317.334h-184    c-3.309,0-6-2.691-6-6V43.333c0-3.309,2.691-6,6-6h150v35c0,2.761,2.238,5,5,5h35v234.001    C482.5,314.643,479.809,317.334,476.5,317.334z"/><path d="M317.5,117.333c2.762,0,5-2.239,5-5c0-27.57,22.43-50,50-50c27.57,0,50,22.43,50,50c0,2.761,2.238,5,5,5    c2.762,0,5-2.239,5-5c0-33.084-26.916-60-60-60s-60,26.916-60,60C312.5,115.094,314.738,117.333,317.5,117.333z"/><path d="M388.34,125.106c1.537,2.305,4.643,2.914,6.934,1.387l15-10c2.957-1.972,2.976-6.336,0-8.32l-15-10    c-2.299-1.532-5.403-0.911-6.934,1.387c-1.532,2.297-0.911,5.402,1.387,6.934l8.76,5.84l-8.76,5.84    C387.429,119.705,386.808,122.809,388.34,125.106z"/><path d="M356.66,125.106c1.532-2.297,0.911-5.402-1.387-6.934l-8.76-5.84l8.76-5.84c2.298-1.532,2.919-4.636,1.387-6.934    c-1.532-2.298-4.636-2.919-6.934-1.387l-15,10c-2.957,1.972-2.976,6.336,0,8.32l15,10    C352.019,128.021,355.125,127.41,356.66,125.106z"/><path d="M384.081,77.589c-2.615-0.872-5.451,0.542-6.324,3.163l-20,60c-0.873,2.62,0.542,5.451,3.162,6.325    c2.619,0.873,5.451-0.543,6.324-3.163l20-60C388.116,81.294,386.701,78.463,384.081,77.589z"/><path d="M227.5,87.333c11.028,0,20-8.972,20-20s-8.972-20-20-20s-20,8.972-20,20S216.472,87.333,227.5,87.333z M227.5,57.333    c5.514,0,10,4.486,10,10s-4.486,10-10,10c-5.514,0-10-4.486-10-10S221.986,57.333,227.5,57.333z"/><circle cx="365.002" cy="464.834" r="7.5"/><circle cx="155.002" cy="449.83" r="7.5"/><path d="M422.5,437.334c-11.028,0-20,8.972-20,20c0,11.027,8.972,20,20,20c11.028,0,20-8.973,20-20    C442.5,446.306,433.528,437.334,422.5,437.334z M422.5,467.334c-5.514,0-10-4.486-10-10c0-5.515,4.486-10,10-10s10,4.485,10,10    C432.5,462.848,428.014,467.334,422.5,467.334z"/><path d="M86.094,447.339c-12.531-0.902-23.384,8.633-24.285,20.985c-0.958,13.134,9.47,24.347,22.654,24.347    c11.822,0,21.756-9.245,22.616-21.046C107.989,459.145,98.575,448.25,86.094,447.339z M97.105,470.898    c-0.504,6.912-6.566,12.246-13.585,11.737c-6.981-0.509-12.247-6.604-11.738-13.585c0.499-6.849,6.485-12.244,13.584-11.738    C92.349,457.822,97.614,463.916,97.105,470.898z"/><path d="M72.5,82.333c13.785,0,25-11.215,25-25c0-13.785-11.215-25-25-25s-25,11.215-25,25C47.5,71.118,58.715,82.333,72.5,82.333    z M72.5,42.333c8.271,0,15,6.729,15,15s-6.729,15-15,15s-15-6.729-15-15S64.229,42.333,72.5,42.333z"/></g></g><text x="0" y="535" fill="#000000" font-size="5px" font-weight="bold" font-family="'Helvetica Neue', Helvetica, Arial-Unicode, Arial, Sans-serif">Created by Flatart</text><text x="0" y="540" fill="#000000" font-size="5px" font-weight="bold" font-family="'Helvetica Neue', Helvetica, Arial-Unicode, Arial, Sans-serif">from the Noun Project</text></svg>